<svg xmlns="http://www.w3.org/2000/svg" viewBox="0 0 124 148.49"><defs><style>.cls-1{fill:#29b6f6;}.cls-2{fill:#fff;}</style></defs><title>logo</title><g id="Layer_2" data-name="Layer 2"><g id="Layer_1-2" data-name="Layer 1"><path class="cls-1" d="M91.85,114H85.23A7.06,7.06,0,0,0,81,115.4L43.76,147.08a7.07,7.07,0,0,1-11.28-5.57l-.24-21.16a7,7,0,0,0-5.77-6.85A32.18,32.18,0,0,1,0,81.85V32.15A32.16,32.16,0,0,1,32.15,0h59.7A32.16,32.16,0,0,1,124,32.15v49.7A32.16,32.16,0,0,1,91.85,114Z"/><path class="cls-2" d="M54.92,77.57c-1-.69-1.53-.23-2.12,0a4.81,4.81,0,0,1-6.23-1.34,30.17,30.17,0,0,0-3.92-3.91c-3.06-2.43-3.95-5.21-1.48-9C37.92,62.62,35,63,32.05,63c-5.83-.09-6.69-1.52-4-6.88,1.47-2.92,3.08-5.77,4.47-8.72,1.49-3.17,3.58-5,7.35-4.65a64.81,64.81,0,0,0,6.54,0c4.91,0,5,.06,8-4.11,5.8-8.1,13.73-11.91,23.55-12,2.86,0,5.72-.09,8.57.1a4.56,4.56,0,0,1,4.6,4.69c0,5.46.76,11-.88,16.37-1.82,6-10.46,15.2-10.71,15.38-4.44,3.24-4.44,3.24-4.44,8.84a45.05,45.05,0,0,0,0,6c.45,3.36-1.24,5.55-3.8,7-3.68,2.09-7.55,3.86-11.41,5.61-3.27,1.48-5,.31-5-3.36C54.88,84,54.92,80.64,54.92,77.57Zm30.2-44.88c-2.58,0-4.89,0-7.2,0A22.38,22.38,0,0,0,58.88,43c-4.72,6.91-7.54,14.79-11.65,22-1.34,2.35.55,3.27,1.7,4.59s2.34,1.89,4.29.84C59.39,67.15,65.76,64.23,72,61A25.36,25.36,0,0,0,83.26,49C85.74,43.81,85.14,38.47,85.12,32.69Z"/><path class="cls-2" d="M78.14,45A5.27,5.27,0,0,1,73,49.85a5.2,5.2,0,0,1-5-5.47,5,5,0,0,1,5.32-4.63A5.16,5.16,0,0,1,78.14,45Z"/></g></g></svg>